<mxfile host="app.diagrams.net" agent="Mozilla/5.0 (Windows NT 10.0; Win64; x64; rv:132.0) Gecko/20100101 Firefox/132.0" version="24.7.17">
  <diagram name="Сторінка-1" id="FHn76OBf0Oh6zufiR-JI">
    <mxGraphModel grid="1" page="1" gridSize="10" guides="1" tooltips="1" connect="1" arrows="1" fold="1" pageScale="1" pageWidth="827" pageHeight="1169" math="0" shadow="0">
      <root>
        <mxCell id="0" />
        <mxCell id="1" parent="0" />
        <mxCell id="NXQmtAmPOfyHGIefTIuY-2" style="edgeStyle=orthogonalEdgeStyle;rounded=0;orthogonalLoop=1;jettySize=auto;html=1;" edge="1" parent="1" source="NXQmtAmPOfyHGIefTIuY-1" target="NXQmtAmPOfyHGIefTIuY-3">
          <mxGeometry relative="1" as="geometry">
            <mxPoint x="400" y="160" as="targetPoint" />
          </mxGeometry>
        </mxCell>
        <mxCell id="NXQmtAmPOfyHGIefTIuY-1" value="Start" style="ellipse;whiteSpace=wrap;html=1;" vertex="1" parent="1">
          <mxGeometry x="340" y="40" width="120" height="80" as="geometry" />
        </mxCell>
        <mxCell id="NXQmtAmPOfyHGIefTIuY-4" style="edgeStyle=orthogonalEdgeStyle;rounded=0;orthogonalLoop=1;jettySize=auto;html=1;entryX=0.5;entryY=0;entryDx=0;entryDy=0;" edge="1" parent="1" source="NXQmtAmPOfyHGIefTIuY-3" target="NXQmtAmPOfyHGIefTIuY-5">
          <mxGeometry relative="1" as="geometry">
            <mxPoint x="400" y="270" as="targetPoint" />
          </mxGeometry>
        </mxCell>
        <mxCell id="NXQmtAmPOfyHGIefTIuY-3" value="&lt;div&gt;int n, daynum&lt;/div&gt;&lt;div&gt;std::string currentday&lt;/div&gt;&lt;div&gt;int k[7]={0,0,0,0,0,0,0}&lt;/div&gt;&lt;div&gt;std::string day[7]={&quot;Monday&quot;,&quot;Tuesday&quot;,&quot;Wednesday&quot;,&quot;Thursday&quot;,&quot;Friday&quot;,&quot;Saturday&quot;,&quot;Sunday&quot;}&lt;br&gt;&lt;/div&gt;" style="rounded=0;whiteSpace=wrap;html=1;" vertex="1" parent="1">
          <mxGeometry x="140" y="160" width="520" height="60" as="geometry" />
        </mxCell>
        <mxCell id="NXQmtAmPOfyHGIefTIuY-6" style="edgeStyle=orthogonalEdgeStyle;rounded=0;orthogonalLoop=1;jettySize=auto;html=1;" edge="1" parent="1" source="NXQmtAmPOfyHGIefTIuY-5" target="NXQmtAmPOfyHGIefTIuY-7">
          <mxGeometry relative="1" as="geometry">
            <mxPoint x="400" y="340" as="targetPoint" />
          </mxGeometry>
        </mxCell>
        <mxCell id="NXQmtAmPOfyHGIefTIuY-5" value="Input currentday" style="shape=parallelogram;perimeter=parallelogramPerimeter;whiteSpace=wrap;html=1;fixedSize=1;" vertex="1" parent="1">
          <mxGeometry x="340" y="250" width="120" height="60" as="geometry" />
        </mxCell>
        <mxCell id="NXQmtAmPOfyHGIefTIuY-8" style="edgeStyle=orthogonalEdgeStyle;rounded=0;orthogonalLoop=1;jettySize=auto;html=1;" edge="1" parent="1" source="NXQmtAmPOfyHGIefTIuY-7">
          <mxGeometry relative="1" as="geometry">
            <mxPoint x="400" y="440" as="targetPoint" />
          </mxGeometry>
        </mxCell>
        <mxCell id="NXQmtAmPOfyHGIefTIuY-7" value="Input n" style="shape=parallelogram;perimeter=parallelogramPerimeter;whiteSpace=wrap;html=1;fixedSize=1;" vertex="1" parent="1">
          <mxGeometry x="340" y="340" width="120" height="60" as="geometry" />
        </mxCell>
        <mxCell id="NXQmtAmPOfyHGIefTIuY-10" style="edgeStyle=orthogonalEdgeStyle;rounded=0;orthogonalLoop=1;jettySize=auto;html=1;" edge="1" parent="1" source="NXQmtAmPOfyHGIefTIuY-9">
          <mxGeometry relative="1" as="geometry">
            <mxPoint x="400" y="540" as="targetPoint" />
          </mxGeometry>
        </mxCell>
        <mxCell id="NXQmtAmPOfyHGIefTIuY-9" value="int i=0" style="rounded=0;whiteSpace=wrap;html=1;" vertex="1" parent="1">
          <mxGeometry x="340" y="440" width="120" height="60" as="geometry" />
        </mxCell>
        <mxCell id="NXQmtAmPOfyHGIefTIuY-12" style="edgeStyle=orthogonalEdgeStyle;rounded=0;orthogonalLoop=1;jettySize=auto;html=1;exitX=0.5;exitY=1;exitDx=0;exitDy=0;entryX=0.5;entryY=0;entryDx=0;entryDy=0;" edge="1" parent="1" source="NXQmtAmPOfyHGIefTIuY-11" target="NXQmtAmPOfyHGIefTIuY-26">
          <mxGeometry relative="1" as="geometry">
            <mxPoint x="400" y="635" as="targetPoint" />
            <mxPoint x="400" y="620" as="sourcePoint" />
          </mxGeometry>
        </mxCell>
        <mxCell id="NXQmtAmPOfyHGIefTIuY-15" style="edgeStyle=orthogonalEdgeStyle;rounded=0;orthogonalLoop=1;jettySize=auto;html=1;entryX=0.5;entryY=0;entryDx=0;entryDy=0;" edge="1" parent="1" source="NXQmtAmPOfyHGIefTIuY-11" target="NXQmtAmPOfyHGIefTIuY-14">
          <mxGeometry relative="1" as="geometry">
            <mxPoint x="400" y="520" as="targetPoint" />
            <Array as="points">
              <mxPoint x="250" y="575" />
            </Array>
          </mxGeometry>
        </mxCell>
        <mxCell id="NXQmtAmPOfyHGIefTIuY-16" value="Yes" style="edgeLabel;html=1;align=center;verticalAlign=middle;resizable=0;points=[];" connectable="0" vertex="1" parent="NXQmtAmPOfyHGIefTIuY-15">
          <mxGeometry x="-0.7475" relative="1" as="geometry">
            <mxPoint as="offset" />
          </mxGeometry>
        </mxCell>
        <mxCell id="NXQmtAmPOfyHGIefTIuY-11" value="day[i]==currentday?" style="rhombus;whiteSpace=wrap;html=1;" vertex="1" parent="1">
          <mxGeometry x="330" y="540" width="140" height="70" as="geometry" />
        </mxCell>
        <mxCell id="NXQmtAmPOfyHGIefTIuY-14" value="&lt;div&gt;daynum=i&lt;/div&gt;&lt;div&gt;break&lt;br&gt;&lt;/div&gt;" style="rounded=0;whiteSpace=wrap;html=1;" vertex="1" parent="1">
          <mxGeometry x="190" y="720.0000000000001" width="120" height="60" as="geometry" />
        </mxCell>
        <mxCell id="NXQmtAmPOfyHGIefTIuY-27" style="edgeStyle=orthogonalEdgeStyle;rounded=0;orthogonalLoop=1;jettySize=auto;html=1;entryX=1;entryY=0.5;entryDx=0;entryDy=0;" edge="1" parent="1" source="NXQmtAmPOfyHGIefTIuY-26" target="NXQmtAmPOfyHGIefTIuY-11">
          <mxGeometry relative="1" as="geometry">
            <mxPoint x="560" y="570" as="targetPoint" />
            <Array as="points">
              <mxPoint x="540" y="665" />
              <mxPoint x="540" y="575" />
            </Array>
          </mxGeometry>
        </mxCell>
        <mxCell id="NXQmtAmPOfyHGIefTIuY-28" value="Yes" style="edgeLabel;html=1;align=center;verticalAlign=middle;resizable=0;points=[];" connectable="0" vertex="1" parent="NXQmtAmPOfyHGIefTIuY-27">
          <mxGeometry x="-0.7905" relative="1" as="geometry">
            <mxPoint as="offset" />
          </mxGeometry>
        </mxCell>
        <mxCell id="NXQmtAmPOfyHGIefTIuY-29" value="i++" style="edgeLabel;html=1;align=center;verticalAlign=middle;resizable=0;points=[];" connectable="0" vertex="1" parent="NXQmtAmPOfyHGIefTIuY-27">
          <mxGeometry x="0.5511" y="-2" relative="1" as="geometry">
            <mxPoint x="17" y="43" as="offset" />
          </mxGeometry>
        </mxCell>
        <mxCell id="NXQmtAmPOfyHGIefTIuY-26" value="i&amp;lt;7?" style="rhombus;whiteSpace=wrap;html=1;" vertex="1" parent="1">
          <mxGeometry x="330" y="630" width="140" height="70" as="geometry" />
        </mxCell>
        <mxCell id="NXQmtAmPOfyHGIefTIuY-31" value="" style="endArrow=none;html=1;rounded=0;" edge="1" parent="1">
          <mxGeometry width="50" height="50" relative="1" as="geometry">
            <mxPoint x="400" y="750" as="sourcePoint" />
            <mxPoint x="400" y="700" as="targetPoint" />
          </mxGeometry>
        </mxCell>
        <mxCell id="NXQmtAmPOfyHGIefTIuY-32" value="no" style="edgeLabel;html=1;align=center;verticalAlign=middle;resizable=0;points=[];" connectable="0" vertex="1" parent="NXQmtAmPOfyHGIefTIuY-31">
          <mxGeometry x="0.2343" y="1" relative="1" as="geometry">
            <mxPoint as="offset" />
          </mxGeometry>
        </mxCell>
        <mxCell id="NXQmtAmPOfyHGIefTIuY-33" value="" style="endArrow=none;html=1;rounded=0;" edge="1" parent="1" target="NXQmtAmPOfyHGIefTIuY-34">
          <mxGeometry width="50" height="50" relative="1" as="geometry">
            <mxPoint x="310" y="750" as="sourcePoint" />
            <mxPoint x="400" y="810" as="targetPoint" />
            <Array as="points">
              <mxPoint x="400" y="750" />
            </Array>
          </mxGeometry>
        </mxCell>
        <mxCell id="NXQmtAmPOfyHGIefTIuY-34" value="1" style="ellipse;whiteSpace=wrap;html=1;aspect=fixed;" vertex="1" parent="1">
          <mxGeometry x="390" y="790" width="20" height="20" as="geometry" />
        </mxCell>
        <mxCell id="NXQmtAmPOfyHGIefTIuY-36" style="edgeStyle=orthogonalEdgeStyle;rounded=0;orthogonalLoop=1;jettySize=auto;html=1;" edge="1" parent="1" source="NXQmtAmPOfyHGIefTIuY-35">
          <mxGeometry relative="1" as="geometry">
            <mxPoint x="920" y="130" as="targetPoint" />
          </mxGeometry>
        </mxCell>
        <mxCell id="NXQmtAmPOfyHGIefTIuY-35" value="1" style="ellipse;whiteSpace=wrap;html=1;aspect=fixed;" vertex="1" parent="1">
          <mxGeometry x="910" y="70" width="20" height="20" as="geometry" />
        </mxCell>
        <mxCell id="NXQmtAmPOfyHGIefTIuY-37" style="edgeStyle=orthogonalEdgeStyle;rounded=0;orthogonalLoop=1;jettySize=auto;html=1;" edge="1" parent="1" source="NXQmtAmPOfyHGIefTIuY-38">
          <mxGeometry relative="1" as="geometry">
            <mxPoint x="920" y="230.0000000000001" as="targetPoint" />
          </mxGeometry>
        </mxCell>
        <mxCell id="NXQmtAmPOfyHGIefTIuY-38" value="&lt;div&gt;int remain_day=n%7&lt;br&gt;&lt;/div&gt;" style="rounded=0;whiteSpace=wrap;html=1;" vertex="1" parent="1">
          <mxGeometry x="860" y="130.0000000000001" width="120" height="60" as="geometry" />
        </mxCell>
        <mxCell id="NXQmtAmPOfyHGIefTIuY-39" style="edgeStyle=orthogonalEdgeStyle;rounded=0;orthogonalLoop=1;jettySize=auto;html=1;" edge="1" parent="1" source="NXQmtAmPOfyHGIefTIuY-40">
          <mxGeometry relative="1" as="geometry">
            <mxPoint x="920" y="329.9999999999999" as="targetPoint" />
          </mxGeometry>
        </mxCell>
        <mxCell id="NXQmtAmPOfyHGIefTIuY-40" value="int i=0" style="rounded=0;whiteSpace=wrap;html=1;" vertex="1" parent="1">
          <mxGeometry x="860" y="230.0000000000001" width="120" height="60" as="geometry" />
        </mxCell>
        <mxCell id="NXQmtAmPOfyHGIefTIuY-41" style="edgeStyle=orthogonalEdgeStyle;rounded=0;orthogonalLoop=1;jettySize=auto;html=1;" edge="1" parent="1" source="NXQmtAmPOfyHGIefTIuY-42">
          <mxGeometry relative="1" as="geometry">
            <mxPoint x="920" y="429.9999999999999" as="targetPoint" />
          </mxGeometry>
        </mxCell>
        <mxCell id="NXQmtAmPOfyHGIefTIuY-42" value="k[i]+=n/7" style="rounded=0;whiteSpace=wrap;html=1;" vertex="1" parent="1">
          <mxGeometry x="860" y="330.0000000000001" width="120" height="60" as="geometry" />
        </mxCell>
        <mxCell id="NXQmtAmPOfyHGIefTIuY-44" style="edgeStyle=orthogonalEdgeStyle;rounded=0;orthogonalLoop=1;jettySize=auto;html=1;" edge="1" parent="1" source="NXQmtAmPOfyHGIefTIuY-43">
          <mxGeometry relative="1" as="geometry">
            <mxPoint x="920" y="310" as="targetPoint" />
            <Array as="points">
              <mxPoint x="1081" y="460" />
              <mxPoint x="1081" y="310" />
            </Array>
          </mxGeometry>
        </mxCell>
        <mxCell id="NXQmtAmPOfyHGIefTIuY-45" value="Yes" style="edgeLabel;html=1;align=center;verticalAlign=middle;resizable=0;points=[];" connectable="0" vertex="1" parent="NXQmtAmPOfyHGIefTIuY-44">
          <mxGeometry x="-0.7688" y="-3" relative="1" as="geometry">
            <mxPoint x="-1" y="-2" as="offset" />
          </mxGeometry>
        </mxCell>
        <mxCell id="NXQmtAmPOfyHGIefTIuY-46" value="i++" style="edgeLabel;html=1;align=center;verticalAlign=middle;resizable=0;points=[];" connectable="0" vertex="1" parent="NXQmtAmPOfyHGIefTIuY-44">
          <mxGeometry x="-0.1134" relative="1" as="geometry">
            <mxPoint as="offset" />
          </mxGeometry>
        </mxCell>
        <mxCell id="NXQmtAmPOfyHGIefTIuY-47" style="edgeStyle=orthogonalEdgeStyle;rounded=0;orthogonalLoop=1;jettySize=auto;html=1;" edge="1" parent="1" source="NXQmtAmPOfyHGIefTIuY-43">
          <mxGeometry relative="1" as="geometry">
            <mxPoint x="920" y="560" as="targetPoint" />
          </mxGeometry>
        </mxCell>
        <mxCell id="NXQmtAmPOfyHGIefTIuY-48" value="No" style="edgeLabel;html=1;align=center;verticalAlign=middle;resizable=0;points=[];" connectable="0" vertex="1" parent="NXQmtAmPOfyHGIefTIuY-47">
          <mxGeometry x="-0.1954" y="-2" relative="1" as="geometry">
            <mxPoint x="1" as="offset" />
          </mxGeometry>
        </mxCell>
        <mxCell id="NXQmtAmPOfyHGIefTIuY-43" value="i&amp;lt;7?" style="rhombus;whiteSpace=wrap;html=1;" vertex="1" parent="1">
          <mxGeometry x="860" y="430.0000000000001" width="120" height="60" as="geometry" />
        </mxCell>
        <mxCell id="NXQmtAmPOfyHGIefTIuY-50" style="edgeStyle=orthogonalEdgeStyle;rounded=0;orthogonalLoop=1;jettySize=auto;html=1;" edge="1" parent="1" source="NXQmtAmPOfyHGIefTIuY-49">
          <mxGeometry relative="1" as="geometry">
            <mxPoint x="920" y="660" as="targetPoint" />
          </mxGeometry>
        </mxCell>
        <mxCell id="NXQmtAmPOfyHGIefTIuY-49" value="int i=0" style="rounded=0;whiteSpace=wrap;html=1;" vertex="1" parent="1">
          <mxGeometry x="860" y="560.0000000000001" width="120" height="60" as="geometry" />
        </mxCell>
        <mxCell id="NXQmtAmPOfyHGIefTIuY-51" value="k[(i+daynum)%7]++" style="rounded=0;whiteSpace=wrap;html=1;" vertex="1" parent="1">
          <mxGeometry x="860" y="660" width="120" height="60" as="geometry" />
        </mxCell>
        <mxCell id="NXQmtAmPOfyHGIefTIuY-52" style="edgeStyle=orthogonalEdgeStyle;rounded=0;orthogonalLoop=1;jettySize=auto;html=1;" edge="1" parent="1">
          <mxGeometry relative="1" as="geometry">
            <mxPoint x="920" y="759.9999999999999" as="targetPoint" />
            <mxPoint x="920" y="720" as="sourcePoint" />
          </mxGeometry>
        </mxCell>
        <mxCell id="NXQmtAmPOfyHGIefTIuY-55" value="i&amp;lt;remain_day?" style="rhombus;whiteSpace=wrap;html=1;" vertex="1" parent="1">
          <mxGeometry x="860" y="760.0000000000001" width="120" height="60" as="geometry" />
        </mxCell>
        <mxCell id="NXQmtAmPOfyHGIefTIuY-57" style="edgeStyle=orthogonalEdgeStyle;rounded=0;orthogonalLoop=1;jettySize=auto;html=1;" edge="1" parent="1">
          <mxGeometry relative="1" as="geometry">
            <mxPoint x="920" y="640" as="targetPoint" />
            <mxPoint x="980" y="790" as="sourcePoint" />
            <Array as="points">
              <mxPoint x="1081" y="790" />
              <mxPoint x="1081" y="640" />
            </Array>
          </mxGeometry>
        </mxCell>
        <mxCell id="NXQmtAmPOfyHGIefTIuY-58" value="Yes" style="edgeLabel;html=1;align=center;verticalAlign=middle;resizable=0;points=[];" connectable="0" vertex="1" parent="NXQmtAmPOfyHGIefTIuY-57">
          <mxGeometry x="-0.7688" y="-3" relative="1" as="geometry">
            <mxPoint x="-1" y="-2" as="offset" />
          </mxGeometry>
        </mxCell>
        <mxCell id="NXQmtAmPOfyHGIefTIuY-59" value="i++" style="edgeLabel;html=1;align=center;verticalAlign=middle;resizable=0;points=[];" connectable="0" vertex="1" parent="NXQmtAmPOfyHGIefTIuY-57">
          <mxGeometry x="-0.1134" relative="1" as="geometry">
            <mxPoint as="offset" />
          </mxGeometry>
        </mxCell>
        <mxCell id="NXQmtAmPOfyHGIefTIuY-61" value="" style="endArrow=none;html=1;rounded=0;" edge="1" parent="1" source="NXQmtAmPOfyHGIefTIuY-63">
          <mxGeometry width="50" height="50" relative="1" as="geometry">
            <mxPoint x="920" y="880" as="sourcePoint" />
            <mxPoint x="920" y="820" as="targetPoint" />
          </mxGeometry>
        </mxCell>
        <mxCell id="NXQmtAmPOfyHGIefTIuY-62" value="No" style="edgeLabel;html=1;align=center;verticalAlign=middle;resizable=0;points=[];" connectable="0" vertex="1" parent="NXQmtAmPOfyHGIefTIuY-61">
          <mxGeometry x="0.1381" relative="1" as="geometry">
            <mxPoint as="offset" />
          </mxGeometry>
        </mxCell>
        <mxCell id="NXQmtAmPOfyHGIefTIuY-64" value="" style="endArrow=none;html=1;rounded=0;" edge="1" parent="1" target="NXQmtAmPOfyHGIefTIuY-63">
          <mxGeometry width="50" height="50" relative="1" as="geometry">
            <mxPoint x="920" y="880" as="sourcePoint" />
            <mxPoint x="920" y="820" as="targetPoint" />
          </mxGeometry>
        </mxCell>
        <mxCell id="NXQmtAmPOfyHGIefTIuY-63" value="2" style="ellipse;whiteSpace=wrap;html=1;aspect=fixed;" vertex="1" parent="1">
          <mxGeometry x="910" y="880" width="20" height="20" as="geometry" />
        </mxCell>
        <mxCell id="NXQmtAmPOfyHGIefTIuY-68" style="edgeStyle=orthogonalEdgeStyle;rounded=0;orthogonalLoop=1;jettySize=auto;html=1;" edge="1" parent="1" source="NXQmtAmPOfyHGIefTIuY-66">
          <mxGeometry relative="1" as="geometry">
            <mxPoint x="1240" y="130" as="targetPoint" />
          </mxGeometry>
        </mxCell>
        <mxCell id="NXQmtAmPOfyHGIefTIuY-66" value="2" style="ellipse;whiteSpace=wrap;html=1;aspect=fixed;" vertex="1" parent="1">
          <mxGeometry x="1230" y="70" width="20" height="20" as="geometry" />
        </mxCell>
        <mxCell id="NXQmtAmPOfyHGIefTIuY-73" style="edgeStyle=orthogonalEdgeStyle;rounded=0;orthogonalLoop=1;jettySize=auto;html=1;" edge="1" parent="1" source="NXQmtAmPOfyHGIefTIuY-69">
          <mxGeometry relative="1" as="geometry">
            <mxPoint x="1240" y="330" as="targetPoint" />
          </mxGeometry>
        </mxCell>
        <mxCell id="NXQmtAmPOfyHGIefTIuY-80" value="" style="edgeStyle=orthogonalEdgeStyle;rounded=0;orthogonalLoop=1;jettySize=auto;html=1;" edge="1" parent="1" source="NXQmtAmPOfyHGIefTIuY-69" target="NXQmtAmPOfyHGIefTIuY-79">
          <mxGeometry relative="1" as="geometry" />
        </mxCell>
        <mxCell id="NXQmtAmPOfyHGIefTIuY-69" value="Output k[i] &quot; &quot;" style="shape=parallelogram;perimeter=parallelogramPerimeter;whiteSpace=wrap;html=1;fixedSize=1;" vertex="1" parent="1">
          <mxGeometry x="1180" y="230" width="120" height="60" as="geometry" />
        </mxCell>
        <mxCell id="NXQmtAmPOfyHGIefTIuY-71" value="int i=0" style="rounded=0;whiteSpace=wrap;html=1;" vertex="1" parent="1">
          <mxGeometry x="1180" y="130" width="120" height="60" as="geometry" />
        </mxCell>
        <mxCell id="NXQmtAmPOfyHGIefTIuY-72" style="edgeStyle=orthogonalEdgeStyle;rounded=0;orthogonalLoop=1;jettySize=auto;html=1;entryX=0.506;entryY=-0.064;entryDx=0;entryDy=0;entryPerimeter=0;" edge="1" parent="1" source="NXQmtAmPOfyHGIefTIuY-71" target="NXQmtAmPOfyHGIefTIuY-69">
          <mxGeometry relative="1" as="geometry" />
        </mxCell>
        <mxCell id="NXQmtAmPOfyHGIefTIuY-76" style="edgeStyle=orthogonalEdgeStyle;rounded=0;orthogonalLoop=1;jettySize=auto;html=1;" edge="1" parent="1" source="NXQmtAmPOfyHGIefTIuY-79">
          <mxGeometry relative="1" as="geometry">
            <mxPoint x="1240" y="210" as="targetPoint" />
            <Array as="points">
              <mxPoint x="1401" y="360" />
              <mxPoint x="1401" y="210" />
            </Array>
          </mxGeometry>
        </mxCell>
        <mxCell id="NXQmtAmPOfyHGIefTIuY-77" value="Yes" style="edgeLabel;html=1;align=center;verticalAlign=middle;resizable=0;points=[];" connectable="0" vertex="1" parent="NXQmtAmPOfyHGIefTIuY-76">
          <mxGeometry x="-0.7688" y="-3" relative="1" as="geometry">
            <mxPoint x="-1" y="-2" as="offset" />
          </mxGeometry>
        </mxCell>
        <mxCell id="NXQmtAmPOfyHGIefTIuY-78" value="i++" style="edgeLabel;html=1;align=center;verticalAlign=middle;resizable=0;points=[];" connectable="0" vertex="1" parent="NXQmtAmPOfyHGIefTIuY-76">
          <mxGeometry x="-0.1134" relative="1" as="geometry">
            <mxPoint as="offset" />
          </mxGeometry>
        </mxCell>
        <mxCell id="NXQmtAmPOfyHGIefTIuY-81" style="edgeStyle=orthogonalEdgeStyle;rounded=0;orthogonalLoop=1;jettySize=auto;html=1;" edge="1" parent="1" source="NXQmtAmPOfyHGIefTIuY-79">
          <mxGeometry relative="1" as="geometry">
            <mxPoint x="1240" y="430" as="targetPoint" />
          </mxGeometry>
        </mxCell>
        <mxCell id="NXQmtAmPOfyHGIefTIuY-82" value="No" style="edgeLabel;html=1;align=center;verticalAlign=middle;resizable=0;points=[];" connectable="0" vertex="1" parent="NXQmtAmPOfyHGIefTIuY-81">
          <mxGeometry x="-0.2601" y="1" relative="1" as="geometry">
            <mxPoint x="-2" as="offset" />
          </mxGeometry>
        </mxCell>
        <mxCell id="NXQmtAmPOfyHGIefTIuY-79" value="i&amp;lt;7?" style="rhombus;whiteSpace=wrap;html=1;" vertex="1" parent="1">
          <mxGeometry x="1180" y="330.0000000000001" width="120" height="60" as="geometry" />
        </mxCell>
        <mxCell id="NXQmtAmPOfyHGIefTIuY-83" value="End&lt;br&gt;(return 0)" style="ellipse;whiteSpace=wrap;html=1;" vertex="1" parent="1">
          <mxGeometry x="1180" y="430" width="120" height="80" as="geometry" />
        </mxCell>
      </root>
    </mxGraphModel>
  </diagram>
</mxfile>
